<?xml version="1.0" encoding="utf-8"?>
<!-- Generator: Adobe Illustrator 24.1.1, SVG Export Plug-In . SVG Version: 6.00 Build 0)  -->
<svg version="1.1" id="Layer_1" xmlns="http://www.w3.org/2000/svg" xmlns:xlink="http://www.w3.org/1999/xlink" x="0px" y="0px"
	 viewBox="0 0 512 512" style="enable-background:new 0 0 512 512;" xml:space="preserve">
<style type="text/css">
	.st0{fill:#555555;}
</style>
<g>
	<path class="st0" d="M330,0l118,132.9v355.8c0,12.9-10.1,23.3-22.6,23.3H86.6C74.1,512,64,501.6,64,488.7V23.3
		C64,10.4,74.1,0,86.6,0H330z M315,34.9H97.9v442.2h316.2V162.4l-72.4,0c-18.1,0.7-32-2.2-42-10.1c-11.6-9.2-15.9-24.8-15.3-45.6V35
		h30.8L315,34.9z M230.8,383.5c10,0,18.1,8,18.1,17.9c0,9.9-8.1,17.9-18.1,17.9c-10,0-18.1-8-18.1-17.9
		C212.7,391.5,220.8,383.5,230.8,383.5z M286.3,217.1c14.8,14.8,19.8,32.7,17.9,51.1c-1.4,13.8-10.3,27.4-22.7,40.2
		c-2.9,3-5.7,5.8-11.8,11.6c-7.4,7.2-10.3,10-12.9,12.8c-5.2,5.6-6.8,7.9-7.7,10.5c-0.9,2.6-2,8.2-3.2,16.4
		c-1.4,9.5-10.1,16.1-19.3,14.6c-9.3-1.5-15.6-10.4-14.2-19.9c1.5-10.1,3-17.5,4.7-22.6c2.8-8.4,7-14.4,15.3-23.3
		c3.2-3.4,6.2-6.4,14-14c5.9-5.7,8.5-8.3,11.1-10.9c7.2-7.5,12.7-15.7,13-19.2c0.9-8.5-1.2-15.8-7.8-22.4
		c-8.8-8.9-19.7-13-30.6-12.2c-12.6,1-22.5,5.6-30.6,14.8c-5.9,6.7-9.9,14.6-12.1,24.1c-2.1,9.4-11.3,15.2-20.4,13
		c-9.1-2.2-14.8-11.6-12.6-21c3.5-15.2,10.2-28.5,20-39.6c14.2-16,32.2-24.5,53.1-26.1C250.3,193.6,270.6,201.4,286.3,217.1z
		 M317,37.1l1.2,1.5v68.5c-0.3,11.2,1.2,16.8,2,17.4c2.4,1.9,9.2,3.3,20.7,2.9h56.2l9.6,10.8l7.3,8.2L317,37.1z"/>
</g>
</svg>
