<?xml version="1.0" encoding="utf-8"?>
<!-- Generator: Adobe Illustrator 23.0.0, SVG Export Plug-In . SVG Version: 6.00 Build 0)  -->
<svg version="1.1"
	 id="svg263" inkscape:version="1.0 (4035a4f, 2020-05-01)" sodipodi:docname="waffle-logo-square.svg" xmlns:cc="http://creativecommons.org/ns#" xmlns:dc="http://purl.org/dc/elements/1.1/" xmlns:inkscape="http://www.inkscape.org/namespaces/inkscape" xmlns:rdf="http://www.w3.org/1999/02/22-rdf-syntax-ns#" xmlns:sodipodi="http://sodipodi.sourceforge.net/DTD/sodipodi-0.dtd" xmlns:svg="http://www.w3.org/2000/svg"
	 xmlns="http://www.w3.org/2000/svg" xmlns:xlink="http://www.w3.org/1999/xlink" x="0px" y="0px" viewBox="0 0 300 260"
	 style="enable-background:new 0 0 300 260;" xml:space="preserve">
<style type="text/css">
	.st0{fill:none;}
	.st1{fill:#FFAE47;}
	.st2{fill:#FCC062;}
	.st3{fill:#DA7D17;}
	.st4{fill:#F7931E;}
	.st5{fill:url(#SVGID_1_);}
	.st6{fill:url(#SVGID_2_);fill-opacity:5.900000e-02;}
	.st7{filter:url(#Adobe_OpacityMaskFilter);}
	.st8{fill-rule:evenodd;clip-rule:evenodd;fill:#FFFFFF;}
	.st9{mask:url(#x_1_);}
	.st10{fill:url(#z_1_);}
	.st11{fill:url(#SVGID_3_);fill-opacity:7.000000e-02;}
	.st12{fill:url(#C_1_);}
	.st13{fill:url(#SVGID_4_);fill-opacity:6.000000e-02;}
	.st14{filter:url(#Adobe_OpacityMaskFilter_1_);}
	.st15{mask:url(#x_2_);}
	.st16{fill:url(#E_1_);}
	.st17{fill:url(#SVGID_5_);fill-opacity:7.000000e-02;}
	.st18{fill:url(#G_1_);}
	.st19{fill:url(#SVGID_6_);fill-opacity:6.000000e-02;}
	.st20{filter:url(#Adobe_OpacityMaskFilter_2_);}
	.st21{mask:url(#x_3_);}
	.st22{fill:url(#I_1_);}
	.st23{fill:url(#SVGID_7_);fill-opacity:7.000000e-02;}
	.st24{fill:url(#K_1_);}
	.st25{fill:url(#SVGID_8_);fill-opacity:6.000000e-02;}
	.st26{filter:url(#Adobe_OpacityMaskFilter_3_);}
	.st27{mask:url(#x_4_);}
	.st28{fill:url(#M_1_);}
	.st29{fill:url(#SVGID_9_);fill-opacity:7.000000e-02;}
	.st30{fill:url(#O_1_);}
	.st31{fill:url(#SVGID_10_);fill-opacity:6.000000e-02;}
	.st32{filter:url(#Adobe_OpacityMaskFilter_4_);}
	.st33{mask:url(#x_5_);}
	.st34{fill:url(#Q_1_);}
	.st35{fill:url(#SVGID_11_);fill-opacity:7.000000e-02;}
	.st36{fill:url(#S_1_);}
	.st37{fill:url(#SVGID_12_);fill-opacity:6.000000e-02;}
	.st38{filter:url(#Adobe_OpacityMaskFilter_5_);}
	.st39{mask:url(#x_6_);}
	.st40{fill:url(#U_1_);}
	.st41{fill:url(#SVGID_13_);fill-opacity:7.000000e-02;}
	.st42{fill:url(#W_1_);}
	.st43{fill:url(#SVGID_14_);fill-opacity:6.000000e-02;}
	.st44{filter:url(#Adobe_OpacityMaskFilter_6_);}
	.st45{mask:url(#x_7_);}
	.st46{fill:url(#Y_1_);}
	.st47{fill:url(#SVGID_15_);fill-opacity:7.000000e-02;}
	.st48{fill:url(#aa_1_);}
	.st49{fill:url(#SVGID_16_);fill-opacity:6.000000e-02;}
	.st50{filter:url(#Adobe_OpacityMaskFilter_7_);}
	.st51{mask:url(#x_8_);}
	.st52{fill:url(#ac_1_);}
	.st53{fill:url(#SVGID_17_);fill-opacity:7.000000e-02;}
	.st54{fill:url(#ae_1_);}
	.st55{fill:url(#SVGID_18_);fill-opacity:6.000000e-02;}
	.st56{filter:url(#Adobe_OpacityMaskFilter_8_);}
	.st57{mask:url(#x_9_);}
	.st58{fill:url(#ag_1_);}
	.st59{fill:url(#SVGID_19_);fill-opacity:7.000000e-02;}
	.st60{fill:url(#ai_1_);}
	.st61{fill:url(#SVGID_20_);fill-opacity:6.000000e-02;}
</style>
<pattern  y="260" width="258" height="258" patternUnits="userSpaceOnUse" id="A" viewBox="0 -258 258 258" style="overflow:visible;">
	<g>
		<rect y="-258" class="st0" width="258" height="258"/>
		<g id="use26_1_">
		</g>
	</g>
</pattern>
<pattern  y="260" width="258" height="258" patternUnits="userSpaceOnUse" id="D" viewBox="0 -258 258 258" style="overflow:visible;">
	<g>
		<rect y="-258" class="st0" width="258" height="258"/>
		<g id="use35_1_">
		</g>
	</g>
</pattern>
<pattern  y="260" width="258" height="258" patternUnits="userSpaceOnUse" id="F" viewBox="0 -258 258 258" style="overflow:visible;">
	<g>
		<rect y="-258" class="st0" width="258" height="258"/>
		<g id="use39_1_">
		</g>
	</g>
</pattern>
<pattern  y="260" width="258" height="258" patternUnits="userSpaceOnUse" id="H" viewBox="0 -258 258 258" style="overflow:visible;">
	<g>
		<rect y="-258" class="st0" width="258" height="258"/>
		<g id="use43_1_">
		</g>
	</g>
</pattern>
<pattern  y="260" width="258" height="258" patternUnits="userSpaceOnUse" id="J" viewBox="0 -258 258 258" style="overflow:visible;">
	<g>
		<rect y="-258" class="st0" width="258" height="258"/>
		<g id="use47_1_">
		</g>
	</g>
</pattern>
<pattern  y="260" width="258" height="258" patternUnits="userSpaceOnUse" id="L" viewBox="0 -258 258 258" style="overflow:visible;">
	<g>
		<rect y="-258" class="st0" width="258" height="258"/>
		<g id="use51_1_">
		</g>
	</g>
</pattern>
<pattern  y="260" width="258" height="258" patternUnits="userSpaceOnUse" id="N" viewBox="0 -258 258 258" style="overflow:visible;">
	<g>
		<rect y="-258" class="st0" width="258" height="258"/>
		<g id="use55_1_">
		</g>
	</g>
</pattern>
<pattern  y="260" width="258" height="258" patternUnits="userSpaceOnUse" id="P" viewBox="0 -258 258 258" style="overflow:visible;">
	<g>
		<rect y="-258" class="st0" width="258" height="258"/>
		<g id="use59_1_">
		</g>
	</g>
</pattern>
<pattern  y="260" width="258" height="258" patternUnits="userSpaceOnUse" id="R" viewBox="0 -258 258 258" style="overflow:visible;">
	<g>
		<rect y="-258" class="st0" width="258" height="258"/>
		<g id="use63_1_">
		</g>
	</g>
</pattern>
<pattern  y="260" width="258" height="258" patternUnits="userSpaceOnUse" id="T" viewBox="0 -258 258 258" style="overflow:visible;">
	<g>
		<rect y="-258" class="st0" width="258" height="258"/>
		<g id="use67_1_">
		</g>
	</g>
</pattern>
<pattern  y="260" width="258" height="258" patternUnits="userSpaceOnUse" id="V" viewBox="0 -258 258 258" style="overflow:visible;">
	<g>
		<rect y="-258" class="st0" width="258" height="258"/>
		<g id="use71_1_">
		</g>
	</g>
</pattern>
<pattern  y="260" width="258" height="258" patternUnits="userSpaceOnUse" id="X" viewBox="0 -258 258 258" style="overflow:visible;">
	<g>
		<rect y="-258" class="st0" width="258" height="258"/>
		<g id="use75_1_">
		</g>
	</g>
</pattern>
<pattern  y="260" width="258" height="258" patternUnits="userSpaceOnUse" id="Z" viewBox="0 -258 258 258" style="overflow:visible;">
	<g>
		<rect y="-258" class="st0" width="258" height="258"/>
		<g id="use79_1_">
		</g>
	</g>
</pattern>
<pattern  y="260" width="258" height="258" patternUnits="userSpaceOnUse" id="ab" viewBox="0 -258 258 258" style="overflow:visible;">
	<g>
		<rect y="-258" class="st0" width="258" height="258"/>
		<g id="use83_1_">
		</g>
	</g>
</pattern>
<pattern  y="260" width="258" height="258" patternUnits="userSpaceOnUse" id="ad" viewBox="0 -258 258 258" style="overflow:visible;">
	<g>
		<rect y="-258" class="st0" width="258" height="258"/>
		<g id="use87_1_">
		</g>
	</g>
</pattern>
<pattern  y="260" width="258" height="258" patternUnits="userSpaceOnUse" id="af" viewBox="0 -258 258 258" style="overflow:visible;">
	<g>
		<rect y="-258" class="st0" width="258" height="258"/>
		<g id="use91_1_">
		</g>
	</g>
</pattern>
<pattern  y="260" width="258" height="258" patternUnits="userSpaceOnUse" id="ah" viewBox="0 -258 258 258" style="overflow:visible;">
	<g>
		<rect y="-258" class="st0" width="258" height="258"/>
		<g id="use95_1_">
		</g>
	</g>
</pattern>
<pattern  y="260" width="258" height="258" patternUnits="userSpaceOnUse" id="aj" viewBox="0 -258 258 258" style="overflow:visible;">
	<g>
		<rect y="-258" class="st0" width="258" height="258"/>
		<g id="use99_1_">
		</g>
	</g>
</pattern>
<pattern  y="260" width="258" height="258" patternUnits="userSpaceOnUse" id="w" viewBox="0 -258 258 258" style="overflow:visible;">
	<g>
		<rect y="-258" class="st0" width="258" height="258"/>
		<g id="use17_1_">
		</g>
	</g>
</pattern>
<sodipodi:namedview  bordercolor="#666666" borderopacity="1" fit-margin-bottom="0" fit-margin-left="0" fit-margin-right="0" fit-margin-top="0" gridtolerance="10" guidetolerance="10" id="namedview265" inkscape:current-layer="svg263" inkscape:cx="147.3506" inkscape:cy="183.80406" inkscape:document-rotation="0" inkscape:pageopacity="0" inkscape:pageshadow="2" inkscape:snap-bbox="true" inkscape:snap-midpoints="true" inkscape:window-height="855" inkscape:window-maximized="1" inkscape:window-width="1440" inkscape:window-x="0" inkscape:window-y="23" inkscape:zoom="1.3803104" objecttolerance="10" pagecolor="#ffffff" showgrid="false">
	</sodipodi:namedview>
<g id="g261" transform="matrix(0.29824353,0,0,0.29824353,9.9929148,4.8739952)" inkscape:export-xdpi="96" inkscape:export-ydpi="96">
	<g id="use104" transform="translate(0,44.133)">
		<path id="t" class="st1" d="M24.9,416.7l429.9-256.9c8.8-5.1,19.6-5.1,28.3,0l426.1,246.2l7.9-5.1l21.4-6.2v62
			c-1.5-0.7-3-1.5-4.5-2.2c-2.4,3.8-5.8,7-9.7,9.3L477.1,723.4c-8.8,5.1-19.6,5.1-28.3,0L14.2,472.2C4.6,466.6-0.9,456,0.1,445
			v-41.7L24.9,416.7z"/>
	</g>
	<path id="path106" class="st2" d="M483,115.6l441.2,254.9c8.8,5.1,14.2,14.4,14.2,24.5c0,10.1-5.4,19.5-14.2,24.5L477.1,679.3
		c-8.8,5.1-19.6,5.1-28.3,0L14.2,428C5.4,423,0,413.6,0,403.5C0,393.4,5.4,384,14.2,379l440.6-263.3
		C463.5,110.6,474.3,110.6,483,115.6z"/>
	<g id="g112">
		<path id="path108" class="st3" d="M733,486.8v0.2c0,4.9-2.6,9.4-6.8,11.8l-82.9,48c-0.9,0.5-1.9,1-2.9,1.3l-10.9,6.3
			c-4.2,2.4-9.3,2.4-13.5,0l-96.9-56.1c-4.1-2.4-6.7-6.9-6.7-11.7c0-4.8,2.5-9.3,6.7-11.7l96.9-56.1c4.2-2.4,9.3-2.4,13.4,0
			l96.9,56.1C730.6,477.4,733.1,481.9,733,486.8L733,486.8z"/>
		<path id="path110" class="st4" d="M619.4,557.2c1.9,1.1,4.3,1.1,6.3,0l87-50.6l9.2-5.5l-96.2-56c-1.9-1.1-4.3-1.1-6.3,0
			l-96.3,55.4l9.4,6.1L619.4,557.2z"/>
	</g>
	<g id="g118">
		<path id="path114" class="st3" d="M417.5,488.5l0,0.2c0,4.9-2.6,9.4-6.8,11.8l-82.9,48c-0.9,0.5-1.9,1-2.9,1.3l-10.9,6.3
			c-4.2,2.4-9.3,2.4-13.5,0L203.5,500c-4.1-2.4-6.7-6.9-6.7-11.7c0-4.8,2.6-9.3,6.7-11.7l96.9-56.1c4.2-2.4,9.3-2.4,13.4,0
			l96.9,56.1C415,479.1,417.5,483.6,417.5,488.5L417.5,488.5z"/>
		<path id="path116" class="st4" d="M303.8,558.9c1.9,1.1,4.3,1.1,6.3,0l87-50.6l9.2-5.5l-96.2-56c-1.9-1.1-4.3-1.1-6.3,0
			l-96.3,55.4l9.4,6.1L303.8,558.9L303.8,558.9z"/>
	</g>
	<g id="g124">
		<path id="path120" class="st3" d="M574,578.4l0,0.2c0,4.9-2.6,9.4-6.8,11.8l-82.9,48c-0.9,0.5-1.9,1-2.9,1.3l-10.9,6.3
			c-4.2,2.4-9.3,2.4-13.5,0L360,589.9c-4.1-2.4-6.7-6.9-6.7-11.7c0-4.8,2.5-9.3,6.7-11.7l96.9-56.1c4.2-2.4,9.3-2.4,13.4,0
			l96.9,56.1C571.5,569,574.1,573.5,574,578.4L574,578.4z"/>
		<path id="path122" class="st4" d="M460.4,648.8c1.9,1.1,4.3,1.1,6.3,0l87-50.6l9.2-5.5l-96.2-56c-1.9-1.1-4.3-1.1-6.3,0
			l-96.3,55.4l9.4,6.1L460.4,648.8z"/>
	</g>
	<g id="g133">
		<g id="use129">
			
				<linearGradient id="SVGID_1_" gradientUnits="userSpaceOnUse" x1="924.0436" y1="1738.9515" x2="924.0436" y2="895.8739" gradientTransform="matrix(0.3821 0 0 -0.2328 116.3975 430.6664)">
				<stop  offset="0" style="stop-color:#9C703E"/>
				<stop  offset="1" style="stop-color:#784A25"/>
			</linearGradient>
			<path class="st5" d="M39.1,442.7c-1.5-1.2-6.3-4-11.2-6.9c-5.7-3.4-18.3-9.6-21.9-15.3c-3.7-5.7-5.9-6.9-5.9-17
				C0,393.4,5.4,384,14.2,379L443,122.7l0.7-0.4l0.3-0.2l10.7-6.4c0.2-0.1,0.5-0.3,0.7-0.4c2.2-1,4.2-1.9,6.1-2.4
				c4.5-1.2,9.1-1.3,13.6-0.3c2.5,0.7,5.1,1.7,8,3.1l4.2,2.3c2.4,1.3,4.9,2.9,7.7,4.6C762.5,276,906.1,359.1,926,371.7
				c13,8.3,16.8,25.5,8.5,38.4c-2.4,3.7-5.6,6.9-9.5,9.1l-38.1,22.2l-34.3,30.1c-35.2-10.5-58.6-12.1-70-4.9
				c-4,2.5-11.2-2.1-17.4-5.9c-6.3-3.8-20.7,8.1-27.5,14c-2.9,2.5-4.3,6.1-4.1,10.7c0.2,5.8-2.9,11.2-8.1,13.9
				c-46.8-12.6-77.4-8.3-100.2,3.3c-10.1,5.2-18.7,9.8-25.9,13.7c-2.4,1.3-3.2,4.2-2,6.6c0.3,0.6,0.8,1.2,1.4,1.6l3.2,2.4
				c3.5,2.6,4.2,7.6,1.6,11.1c-0.5,0.7-1.2,1.3-1.9,1.8l-5.2,3.5c-15.6-8.6-23.7-13.3-24.3-14c0-0.1-2.2,0.7-6.4,2.3
				c-0.9,0.3-1.7,0.6-2.6,0.8c-13.4,3.1-24.6,1.6-33.5-4.5c-13.8-9.4-20.5-0.1-23.6,2.5c-2.9,2.5-2.4,16.1-2.1,22.5
				c0,0.4,0.1,4.7,0,5.1c0,0.3-2.7,2.4-8.1,6.4c-5.2,3.8-11.2,5.8-18.1,6.1c-10.2,0.4-16-3.9-25.1-10.3c-6-4.3-9.1-9-9.1-14.2
				c1.6-18.4-4.6-24-18.5-16.7c-15.4,8-19.3,14.6-35.7,6.6c-10.9-5.3-30.8,2.1-59.4,22.2l-21.9,13.6c-17,10.5-38.5,10.2-55.2-0.8
				c-0.4-0.3-0.8-0.5-1.2-0.7c-11.1-6-14.7,29.1-15.2,35.4c-0.3,10.8-1.4,15.8,2,38.4c1.2,8.1,5.4,12.7,7.1,17
				c6.2,16.2-3.3,23.4-11.7,22.9c-8.4-0.5-15.5-9.1-10.8-22.9c1.8-5.3,4.4-9.1,6.2-16.9c4.6-19.6,4.7-27.9,2.6-38.4
				c-5-24.1-12.8-57.9-31.2-69.7c-25-16.2-52.7-29.3-63.8-15.6c-3.6,4.4-7.3,6.2-10.9,3.1c-3.6-3.1-4.6-5.9-11.4-20.2
				c-3.4-7.1-7.3-12.4-7.8-13.3c-10.1-17.5-30.7-26.7-40.4-31.9C57.2,453,48.1,447.9,39.1,442.7L39.1,442.7z"/>
		</g>
		<g id="use131">
			<pattern  id="SVGID_2_" xlink:href="#w" patternTransform="matrix(0.2982 0 0 -0.2982 -5760.4727 -11043.5)">
			</pattern>
			<path class="st6" d="M39.1,442.7c-1.5-1.2-6.3-4-11.2-6.9c-5.7-3.4-18.3-9.6-21.9-15.3c-3.7-5.7-5.9-6.9-5.9-17
				C0,393.4,5.4,384,14.2,379L443,122.7l0.7-0.4l0.3-0.2l10.7-6.4c0.2-0.1,0.5-0.3,0.7-0.4c2.2-1,4.2-1.9,6.1-2.4
				c4.5-1.2,9.1-1.3,13.6-0.3c2.5,0.7,5.1,1.7,8,3.1l4.2,2.3c2.4,1.3,4.9,2.9,7.7,4.6C762.5,276,906.1,359.1,926,371.7
				c13,8.3,16.8,25.5,8.5,38.4c-2.4,3.7-5.6,6.9-9.5,9.1l-38.1,22.2l-34.3,30.1c-35.2-10.5-58.6-12.1-70-4.9
				c-4,2.5-11.2-2.1-17.4-5.9c-6.3-3.8-20.7,8.1-27.5,14c-2.9,2.5-4.3,6.1-4.1,10.7c0.2,5.8-2.9,11.2-8.1,13.9
				c-46.8-12.6-77.4-8.3-100.2,3.3c-10.1,5.2-18.7,9.8-25.9,13.7c-2.4,1.3-3.2,4.2-2,6.6c0.3,0.6,0.8,1.2,1.4,1.6l3.2,2.4
				c3.5,2.6,4.2,7.6,1.6,11.1c-0.5,0.7-1.2,1.3-1.9,1.8l-5.2,3.5c-15.6-8.6-23.7-13.3-24.3-14c0-0.1-2.2,0.7-6.4,2.3
				c-0.9,0.3-1.7,0.6-2.6,0.8c-13.4,3.1-24.6,1.6-33.5-4.5c-13.8-9.4-20.5-0.1-23.6,2.5c-2.9,2.5-2.4,16.1-2.1,22.5
				c0,0.4,0.1,4.7,0,5.1c0,0.3-2.7,2.4-8.1,6.4c-5.2,3.8-11.2,5.8-18.1,6.1c-10.2,0.4-16-3.9-25.1-10.3c-6-4.3-9.1-9-9.1-14.2
				c1.6-18.4-4.6-24-18.5-16.7c-15.4,8-19.3,14.6-35.7,6.6c-10.9-5.3-30.8,2.1-59.4,22.2l-21.9,13.6c-17,10.5-38.5,10.2-55.2-0.8
				c-0.4-0.3-0.8-0.5-1.2-0.7c-11.1-6-14.7,29.1-15.2,35.4c-0.3,10.8-1.4,15.8,2,38.4c1.2,8.1,5.4,12.7,7.1,17
				c6.2,16.2-3.3,23.4-11.7,22.9c-8.4-0.5-15.5-9.1-10.8-22.9c1.8-5.3,4.4-9.1,6.2-16.9c4.6-19.6,4.7-27.9,2.6-38.4
				c-5-24.1-12.8-57.9-31.2-69.7c-25-16.2-52.7-29.3-63.8-15.6c-3.6,4.4-7.3,6.2-10.9,3.1c-3.6-3.1-4.6-5.9-11.4-20.2
				c-3.4-7.1-7.3-12.4-7.8-13.3c-10.1-17.5-30.7-26.7-40.4-31.9C57.2,453,48.1,447.9,39.1,442.7L39.1,442.7z"/>
		</g>
	</g>
	<defs>
		<filter id="Adobe_OpacityMaskFilter" filterUnits="userSpaceOnUse" x="357.5" y="146.4" width="220.7" height="141.1">
			<feColorMatrix  type="matrix" values="1 0 0 0 0  0 1 0 0 0  0 0 1 0 0  0 0 0 1 0"/>
		</filter>
	</defs>
	<mask maskUnits="userSpaceOnUse" x="357.5" y="146.4" width="220.7" height="141.1" id="x_1_">
		<g id="use126_1_" class="st7">
			<path id="u_1_" class="st8" d="M39.1,442.7c-1.5-1.2-6.3-4-11.2-6.9c-5.7-3.4-18.3-9.6-21.9-15.3c-3.7-5.7-5.9-6.9-5.9-17
				C0,393.4,5.4,384,14.2,379L443,122.7l0.7-0.4l0.3-0.2l10.7-6.4c0.2-0.1,0.5-0.3,0.7-0.4c2.2-1,4.2-1.9,6.1-2.4
				c4.5-1.2,9.1-1.3,13.6-0.3c2.5,0.7,5.1,1.7,8,3.1l4.2,2.3c2.4,1.3,4.9,2.9,7.7,4.6C762.5,276,906.1,359.1,926,371.7
				c13,8.3,16.8,25.5,8.5,38.4c-2.4,3.7-5.6,6.9-9.5,9.1l-38.1,22.2l-34.3,30.1c-35.2-10.5-58.6-12.1-70-4.9
				c-4,2.5-11.2-2.1-17.4-5.9c-6.3-3.8-20.7,8.1-27.5,14c-2.9,2.5-4.3,6.1-4.1,10.7c0.2,5.8-2.9,11.2-8.1,13.9
				c-46.8-12.6-77.4-8.3-100.2,3.3c-10.1,5.2-18.7,9.8-25.9,13.7c-2.4,1.3-3.2,4.2-2,6.6c0.3,0.6,0.8,1.2,1.4,1.6l3.2,2.4
				c3.5,2.6,4.2,7.6,1.6,11.1c-0.5,0.7-1.2,1.3-1.9,1.8l-5.2,3.5c-15.6-8.6-23.7-13.3-24.3-14c0-0.1-2.2,0.7-6.4,2.3
				c-0.9,0.3-1.7,0.6-2.6,0.8c-13.4,3.1-24.6,1.6-33.5-4.5c-13.8-9.4-20.5-0.1-23.6,2.5c-2.9,2.5-2.4,16.1-2.1,22.5
				c0,0.4,0.1,4.7,0,5.1c0,0.3-2.7,2.4-8.1,6.4c-5.2,3.8-11.2,5.8-18.1,6.1c-10.2,0.4-16-3.9-25.1-10.3c-6-4.3-9.1-9-9.1-14.2
				c1.6-18.4-4.6-24-18.5-16.7c-15.4,8-19.3,14.6-35.7,6.6c-10.9-5.3-30.8,2.1-59.4,22.2l-21.9,13.6c-17,10.5-38.5,10.2-55.2-0.8
				c-0.4-0.3-0.8-0.5-1.2-0.7c-11.1-6-14.7,29.1-15.2,35.4c-0.3,10.8-1.4,15.8,2,38.4c1.2,8.1,5.4,12.7,7.1,17
				c6.2,16.2-3.3,23.4-11.7,22.9c-8.4-0.5-15.5-9.1-10.8-22.9c1.8-5.3,4.4-9.1,6.2-16.9c4.6-19.6,4.7-27.9,2.6-38.4
				c-5-24.1-12.8-57.9-31.2-69.7c-25-16.2-52.7-29.3-63.8-15.6c-3.6,4.4-7.3,6.2-10.9,3.1c-3.6-3.1-4.6-5.9-11.4-20.2
				c-3.4-7.1-7.3-12.4-7.8-13.3c-10.1-17.5-30.7-26.7-40.4-31.9C57.2,453,48.1,447.9,39.1,442.7L39.1,442.7z"/>
		</g>
	</mask>
	<g id="g147" class="st9">
		<g id="g139" transform="translate(357.28,34.14)">
			<g id="use135">
				
					<linearGradient id="z_1_" gradientUnits="userSpaceOnUse" x1="-359.3441" y1="1318.7469" x2="-368.0305" y2="1157.5804" gradientTransform="matrix(0.3755 0 0 -0.2369 251.4306 424.8388)">
					<stop  offset="0" style="stop-color:#71401B"/>
					<stop  offset="1" style="stop-color:#472810"/>
				</linearGradient>
				<path id="z" class="st10" d="M220.9,182l0,0.2c0,4.9-2.6,9.4-6.8,11.8l-82.9,48c-0.9,0.6-1.9,1-2.9,1.3l-10.9,6.3
					c-4.2,2.4-9.3,2.4-13.5,0L6.9,193.5c-4.1-2.4-6.7-6.9-6.7-11.7c0-4.8,2.5-9.3,6.7-11.7l96.9-56.1c4.2-2.4,9.3-2.4,13.4,0
					l96.9,56.1C218.4,172.6,221,177.2,220.9,182L220.9,182z"/>
			</g>
			<g id="use137">
				<pattern  id="SVGID_3_" xlink:href="#A" patternTransform="matrix(0.2982 0 0 -0.2982 -5653.8545 -11053.7988)">
				</pattern>
				<path class="st11" d="M220.9,182l0,0.2c0,4.9-2.6,9.4-6.8,11.8l-82.9,48c-0.9,0.6-1.9,1-2.9,1.3l-10.9,6.3
					c-4.2,2.4-9.3,2.4-13.5,0L6.9,193.5c-4.1-2.4-6.7-6.9-6.7-11.7c0-4.8,2.5-9.3,6.7-11.7l96.9-56.1c4.2-2.4,9.3-2.4,13.4,0
					l96.9,56.1C218.4,172.6,221,177.2,220.9,182L220.9,182z"/>
			</g>
		</g>
		<g id="g145" transform="translate(357.28,34.14)">
			<g id="use141">
				
					<linearGradient id="C_1_" gradientUnits="userSpaceOnUse" x1="-368.3416" y1="1238.4459" x2="-368.3416" y2="1088.0811" gradientTransform="matrix(0.3942 0 0 -0.2256 255.6123 418.9882)">
					<stop  offset="0" style="stop-color:#7B4D27"/>
					<stop  offset="1" style="stop-color:#683F1E"/>
				</linearGradient>
				<path id="C" class="st12" d="M107.3,252.5c1.9,1.1,4.3,1.1,6.3,0l87-50.6l9.2-5.5l-96.2-56c-1.9-1.1-4.3-1.1-6.3,0L11,195.8
					l9.4,6.1L107.3,252.5z"/>
			</g>
			<g id="use143">
				<pattern  id="SVGID_4_" xlink:href="#D" patternTransform="matrix(0.2982 0 0 -0.2982 -5650.6333 -11061.9453)">
				</pattern>
				<path class="st13" d="M107.3,252.5c1.9,1.1,4.3,1.1,6.3,0l87-50.6l9.2-5.5l-96.2-56c-1.9-1.1-4.3-1.1-6.3,0L11,195.8l9.4,6.1
					L107.3,252.5z"/>
			</g>
		</g>
	</g>
	<defs>
		<filter id="Adobe_OpacityMaskFilter_1_" filterUnits="userSpaceOnUse" x="514.1" y="237.1" width="220.7" height="141.1">
			<feColorMatrix  type="matrix" values="1 0 0 0 0  0 1 0 0 0  0 0 1 0 0  0 0 0 1 0"/>
		</filter>
	</defs>
	<mask maskUnits="userSpaceOnUse" x="514.1" y="237.1" width="220.7" height="141.1" id="x_2_">
		<g id="use126_2_" class="st14">
			<path id="u_2_" class="st8" d="M39.1,442.7c-1.5-1.2-6.3-4-11.2-6.9c-5.7-3.4-18.3-9.6-21.9-15.3c-3.7-5.7-5.9-6.9-5.9-17
				C0,393.4,5.4,384,14.2,379L443,122.7l0.7-0.4l0.3-0.2l10.7-6.4c0.2-0.1,0.5-0.3,0.7-0.4c2.2-1,4.2-1.9,6.1-2.4
				c4.5-1.2,9.1-1.3,13.6-0.3c2.5,0.7,5.1,1.7,8,3.1l4.2,2.3c2.4,1.3,4.9,2.9,7.7,4.6C762.5,276,906.1,359.1,926,371.7
				c13,8.3,16.8,25.5,8.5,38.4c-2.4,3.7-5.6,6.9-9.5,9.1l-38.1,22.2l-34.3,30.1c-35.2-10.5-58.6-12.1-70-4.9
				c-4,2.5-11.2-2.1-17.4-5.9c-6.3-3.8-20.7,8.1-27.5,14c-2.9,2.5-4.3,6.1-4.1,10.7c0.2,5.8-2.9,11.2-8.1,13.9
				c-46.8-12.6-77.4-8.3-100.2,3.3c-10.1,5.2-18.7,9.8-25.9,13.7c-2.4,1.3-3.2,4.2-2,6.6c0.3,0.6,0.8,1.2,1.4,1.6l3.2,2.4
				c3.5,2.6,4.2,7.6,1.6,11.1c-0.5,0.7-1.2,1.3-1.9,1.8l-5.2,3.5c-15.6-8.6-23.7-13.3-24.3-14c0-0.1-2.2,0.7-6.4,2.3
				c-0.9,0.3-1.7,0.6-2.6,0.8c-13.4,3.1-24.6,1.6-33.5-4.5c-13.8-9.4-20.5-0.1-23.6,2.5c-2.9,2.5-2.4,16.1-2.1,22.5
				c0,0.4,0.1,4.7,0,5.1c0,0.3-2.7,2.4-8.1,6.4c-5.2,3.8-11.2,5.8-18.1,6.1c-10.2,0.4-16-3.9-25.1-10.3c-6-4.3-9.1-9-9.1-14.2
				c1.6-18.4-4.6-24-18.5-16.7c-15.4,8-19.3,14.6-35.7,6.6c-10.9-5.3-30.8,2.1-59.4,22.2l-21.9,13.6c-17,10.5-38.5,10.2-55.2-0.8
				c-0.4-0.3-0.8-0.5-1.2-0.7c-11.1-6-14.7,29.1-15.2,35.4c-0.3,10.8-1.4,15.8,2,38.4c1.2,8.1,5.4,12.7,7.1,17
				c6.2,16.2-3.3,23.4-11.7,22.9c-8.4-0.5-15.5-9.1-10.8-22.9c1.8-5.3,4.4-9.1,6.2-16.9c4.6-19.6,4.7-27.9,2.6-38.4
				c-5-24.1-12.8-57.9-31.2-69.7c-25-16.2-52.7-29.3-63.8-15.6c-3.6,4.4-7.3,6.2-10.9,3.1c-3.6-3.1-4.6-5.9-11.4-20.2
				c-3.4-7.1-7.3-12.4-7.8-13.3c-10.1-17.5-30.7-26.7-40.4-31.9C57.2,453,48.1,447.9,39.1,442.7L39.1,442.7z"/>
		</g>
	</mask>
	<g id="g161" class="st15">
		<g id="g153" transform="translate(513.827,124.905)">
			<g id="use149">
				
					<linearGradient id="E_1_" gradientUnits="userSpaceOnUse" x1="-515.8911" y1="1227.9819" x2="-524.5775" y2="1066.8154" gradientTransform="matrix(0.3755 0 0 -0.2369 310.2103 403.3368)">
					<stop  offset="0" style="stop-color:#71401B"/>
					<stop  offset="1" style="stop-color:#472810"/>
				</linearGradient>
				<path id="E" class="st16" d="M220.9,182l0,0.2c0,4.9-2.6,9.4-6.8,11.8l-82.9,48c-0.9,0.6-1.9,1-2.9,1.3l-10.9,6.3
					c-4.2,2.4-9.3,2.4-13.5,0L6.9,193.5c-4.1-2.4-6.7-6.9-6.7-11.7c0-4.8,2.5-9.3,6.7-11.7l96.9-56.1c4.2-2.4,9.3-2.4,13.4,0
					l96.9,56.1C218.4,172.6,221,177.2,220.9,182L220.9,182z"/>
			</g>
			<g id="use151">
				<pattern  id="SVGID_5_" xlink:href="#F" patternTransform="matrix(0.2982 0 0 -0.2982 -5607.165 -11080.8691)">
				</pattern>
				<path class="st17" d="M220.9,182l0,0.2c0,4.9-2.6,9.4-6.8,11.8l-82.9,48c-0.9,0.6-1.9,1-2.9,1.3l-10.9,6.3
					c-4.2,2.4-9.3,2.4-13.5,0L6.9,193.5c-4.1-2.4-6.7-6.9-6.7-11.7c0-4.8,2.5-9.3,6.7-11.7l96.9-56.1c4.2-2.4,9.3-2.4,13.4,0
					l96.9,56.1C218.4,172.6,221,177.2,220.9,182L220.9,182z"/>
			</g>
		</g>
		<g id="g159" transform="translate(513.827,124.905)">
			<g id="use155">
				
					<linearGradient id="G_1_" gradientUnits="userSpaceOnUse" x1="-524.8887" y1="1147.6809" x2="-524.8887" y2="997.316" gradientTransform="matrix(0.3942 0 0 -0.2256 317.3257 398.5083)">
					<stop  offset="0" style="stop-color:#7B4D27"/>
					<stop  offset="1" style="stop-color:#683F1E"/>
				</linearGradient>
				<path id="G" class="st18" d="M107.3,252.5c1.9,1.1,4.3,1.1,6.3,0l87-50.6l9.2-5.5l-96.2-56c-1.9-1.1-4.3-1.1-6.3,0L11,195.8
					l9.4,6.1L107.3,252.5z"/>
			</g>
			<g id="use157">
				<pattern  id="SVGID_6_" xlink:href="#H" patternTransform="matrix(0.2982 0 0 -0.2982 -5603.9443 -11089.0156)">
				</pattern>
				<path class="st19" d="M107.3,252.5c1.9,1.1,4.3,1.1,6.3,0l87-50.6l9.2-5.5l-96.2-56c-1.9-1.1-4.3-1.1-6.3,0L11,195.8l9.4,6.1
					L107.3,252.5z"/>
			</g>
		</g>
	</g>
	<defs>
		<filter id="Adobe_OpacityMaskFilter_2_" filterUnits="userSpaceOnUse" x="356.7" y="327.9" width="220.7" height="141.1">
			<feColorMatrix  type="matrix" values="1 0 0 0 0  0 1 0 0 0  0 0 1 0 0  0 0 0 1 0"/>
		</filter>
	</defs>
	<mask maskUnits="userSpaceOnUse" x="356.7" y="327.9" width="220.7" height="141.1" id="x_3_">
		<g id="use126_3_" class="st20">
			<path id="u_3_" class="st8" d="M39.1,442.7c-1.5-1.2-6.3-4-11.2-6.9c-5.7-3.4-18.3-9.6-21.9-15.3c-3.7-5.7-5.9-6.9-5.9-17
				C0,393.4,5.4,384,14.2,379L443,122.7l0.7-0.4l0.3-0.2l10.7-6.4c0.2-0.1,0.5-0.3,0.7-0.4c2.2-1,4.2-1.9,6.1-2.4
				c4.5-1.2,9.1-1.3,13.6-0.3c2.5,0.7,5.1,1.7,8,3.1l4.2,2.3c2.4,1.3,4.9,2.9,7.7,4.6C762.5,276,906.1,359.1,926,371.7
				c13,8.3,16.8,25.5,8.5,38.4c-2.4,3.7-5.6,6.9-9.5,9.1l-38.1,22.2l-34.3,30.1c-35.2-10.5-58.6-12.1-70-4.9
				c-4,2.5-11.2-2.1-17.4-5.9c-6.3-3.8-20.7,8.1-27.5,14c-2.9,2.5-4.3,6.1-4.1,10.7c0.2,5.8-2.9,11.2-8.1,13.9
				c-46.8-12.6-77.4-8.3-100.2,3.3c-10.1,5.2-18.7,9.8-25.9,13.7c-2.4,1.3-3.2,4.2-2,6.6c0.3,0.6,0.8,1.2,1.4,1.6l3.2,2.4
				c3.5,2.6,4.2,7.6,1.6,11.1c-0.5,0.7-1.2,1.3-1.9,1.8l-5.2,3.5c-15.6-8.6-23.7-13.3-24.3-14c0-0.1-2.2,0.7-6.4,2.3
				c-0.9,0.3-1.7,0.6-2.6,0.8c-13.4,3.1-24.6,1.6-33.5-4.5c-13.8-9.4-20.5-0.1-23.6,2.5c-2.9,2.5-2.4,16.1-2.1,22.5
				c0,0.4,0.1,4.7,0,5.1c0,0.3-2.7,2.4-8.1,6.4c-5.2,3.8-11.2,5.8-18.1,6.1c-10.2,0.4-16-3.9-25.1-10.3c-6-4.3-9.1-9-9.1-14.2
				c1.6-18.4-4.6-24-18.5-16.7c-15.4,8-19.3,14.6-35.7,6.6c-10.9-5.3-30.8,2.1-59.4,22.2l-21.9,13.6c-17,10.5-38.5,10.2-55.2-0.8
				c-0.4-0.3-0.8-0.5-1.2-0.7c-11.1-6-14.7,29.1-15.2,35.4c-0.3,10.8-1.4,15.8,2,38.4c1.2,8.1,5.4,12.7,7.1,17
				c6.2,16.2-3.3,23.4-11.7,22.9c-8.4-0.5-15.5-9.1-10.8-22.9c1.8-5.3,4.4-9.1,6.2-16.9c4.6-19.6,4.7-27.9,2.6-38.4
				c-5-24.1-12.8-57.9-31.2-69.7c-25-16.2-52.7-29.3-63.8-15.6c-3.6,4.4-7.3,6.2-10.9,3.1c-3.6-3.1-4.6-5.9-11.4-20.2
				c-3.4-7.1-7.3-12.4-7.8-13.3c-10.1-17.5-30.7-26.7-40.4-31.9C57.2,453,48.1,447.9,39.1,442.7L39.1,442.7z"/>
		</g>
	</mask>
	<g id="g175" class="st21">
		<g id="g167" transform="translate(356.447,215.669)">
			<g id="use163">
				
					<linearGradient id="I_1_" gradientUnits="userSpaceOnUse" x1="-358.5111" y1="1137.2179" x2="-367.1975" y2="976.0515" gradientTransform="matrix(0.3755 0 0 -0.2369 251.1179 381.835)">
					<stop  offset="0" style="stop-color:#71401B"/>
					<stop  offset="1" style="stop-color:#472810"/>
				</linearGradient>
				<path id="I" class="st22" d="M220.9,182l0,0.2c0,4.9-2.6,9.4-6.8,11.8l-82.9,48c-0.9,0.6-1.9,1-2.9,1.3l-10.9,6.3
					c-4.2,2.4-9.3,2.4-13.5,0L6.9,193.5c-4.1-2.4-6.7-6.9-6.7-11.7c0-4.8,2.5-9.3,6.7-11.7l96.9-56.1c4.2-2.4,9.3-2.4,13.4,0
					l96.9,56.1C218.4,172.6,221,177.2,220.9,182L220.9,182z"/>
			</g>
			<g id="use165">
				<pattern  id="SVGID_7_" xlink:href="#J" patternTransform="matrix(0.2982 0 0 -0.2982 -5654.103 -11107.9395)">
				</pattern>
				<path class="st23" d="M220.9,182l0,0.2c0,4.9-2.6,9.4-6.8,11.8l-82.9,48c-0.9,0.6-1.9,1-2.9,1.3l-10.9,6.3
					c-4.2,2.4-9.3,2.4-13.5,0L6.9,193.5c-4.1-2.4-6.7-6.9-6.7-11.7c0-4.8,2.5-9.3,6.7-11.7l96.9-56.1c4.2-2.4,9.3-2.4,13.4,0
					l96.9,56.1C218.4,172.6,221,177.2,220.9,182L220.9,182z"/>
			</g>
		</g>
		<g id="g173" transform="translate(356.447,215.669)">
			<g id="use169">
				
					<linearGradient id="K_1_" gradientUnits="userSpaceOnUse" x1="-367.5086" y1="1056.9169" x2="-367.5086" y2="906.5521" gradientTransform="matrix(0.3942 0 0 -0.2256 255.2839 378.0287)">
					<stop  offset="0" style="stop-color:#7B4D27"/>
					<stop  offset="1" style="stop-color:#683F1E"/>
				</linearGradient>
				<path id="K" class="st24" d="M107.3,252.5c1.9,1.1,4.3,1.1,6.3,0l87-50.6l9.2-5.5l-96.2-56c-1.9-1.1-4.3-1.1-6.3,0L11,195.8
					l9.4,6.1L107.3,252.5z"/>
			</g>
			<g id="use171">
				<pattern  id="SVGID_8_" xlink:href="#L" patternTransform="matrix(0.2982 0 0 -0.2982 -5650.8818 -11116.085)">
				</pattern>
				<path class="st25" d="M107.3,252.5c1.9,1.1,4.3,1.1,6.3,0l87-50.6l9.2-5.5l-96.2-56c-1.9-1.1-4.3-1.1-6.3,0L11,195.8l9.4,6.1
					L107.3,252.5z"/>
			</g>
		</g>
	</g>
	<defs>
		<filter id="Adobe_OpacityMaskFilter_3_" filterUnits="userSpaceOnUse" x="512.4" y="417" width="220.7" height="141.1">
			<feColorMatrix  type="matrix" values="1 0 0 0 0  0 1 0 0 0  0 0 1 0 0  0 0 0 1 0"/>
		</filter>
	</defs>
	<mask maskUnits="userSpaceOnUse" x="512.4" y="417" width="220.7" height="141.1" id="x_4_">
		<g id="use126_4_" class="st26">
			<path id="u_4_" class="st8" d="M39.1,442.7c-1.5-1.2-6.3-4-11.2-6.9c-5.7-3.4-18.3-9.6-21.9-15.3c-3.7-5.7-5.9-6.9-5.9-17
				C0,393.4,5.4,384,14.2,379L443,122.7l0.7-0.4l0.3-0.2l10.7-6.4c0.2-0.1,0.5-0.3,0.7-0.4c2.2-1,4.2-1.9,6.1-2.4
				c4.5-1.2,9.1-1.3,13.6-0.3c2.5,0.7,5.1,1.7,8,3.1l4.2,2.3c2.4,1.3,4.9,2.9,7.7,4.6C762.5,276,906.1,359.1,926,371.7
				c13,8.3,16.8,25.5,8.5,38.4c-2.4,3.7-5.6,6.9-9.5,9.1l-38.1,22.2l-34.3,30.1c-35.2-10.5-58.6-12.1-70-4.9
				c-4,2.5-11.2-2.1-17.4-5.9c-6.3-3.8-20.7,8.1-27.5,14c-2.9,2.5-4.3,6.1-4.1,10.7c0.2,5.8-2.9,11.2-8.1,13.9
				c-46.8-12.6-77.4-8.3-100.2,3.3c-10.1,5.2-18.7,9.8-25.9,13.7c-2.4,1.3-3.2,4.2-2,6.6c0.3,0.6,0.8,1.2,1.4,1.6l3.2,2.4
				c3.5,2.6,4.2,7.6,1.6,11.1c-0.5,0.7-1.2,1.3-1.9,1.8l-5.2,3.5c-15.6-8.6-23.7-13.3-24.3-14c0-0.1-2.2,0.7-6.4,2.3
				c-0.9,0.3-1.7,0.6-2.6,0.8c-13.4,3.1-24.6,1.6-33.5-4.5c-13.8-9.4-20.5-0.1-23.6,2.5c-2.9,2.5-2.4,16.1-2.1,22.5
				c0,0.4,0.1,4.7,0,5.1c0,0.3-2.7,2.4-8.1,6.4c-5.2,3.8-11.2,5.8-18.1,6.1c-10.2,0.4-16-3.9-25.1-10.3c-6-4.3-9.1-9-9.1-14.2
				c1.6-18.4-4.6-24-18.5-16.7c-15.4,8-19.3,14.6-35.7,6.6c-10.9-5.3-30.8,2.1-59.4,22.2l-21.9,13.6c-17,10.5-38.5,10.2-55.2-0.8
				c-0.4-0.3-0.8-0.5-1.2-0.7c-11.1-6-14.7,29.1-15.2,35.4c-0.3,10.8-1.4,15.8,2,38.4c1.2,8.1,5.4,12.7,7.1,17
				c6.2,16.2-3.3,23.4-11.7,22.9c-8.4-0.5-15.5-9.1-10.8-22.9c1.8-5.3,4.4-9.1,6.2-16.9c4.6-19.6,4.7-27.9,2.6-38.4
				c-5-24.1-12.8-57.9-31.2-69.7c-25-16.2-52.7-29.3-63.8-15.6c-3.6,4.4-7.3,6.2-10.9,3.1c-3.6-3.1-4.6-5.9-11.4-20.2
				c-3.4-7.1-7.3-12.4-7.8-13.3c-10.1-17.5-30.7-26.7-40.4-31.9C57.2,453,48.1,447.9,39.1,442.7L39.1,442.7z"/>
		</g>
	</mask>
	<g id="g189" class="st27">
		<g id="g181" transform="translate(512.162,304.768)">
			<g id="use177">
				
					<linearGradient id="M_1_" gradientUnits="userSpaceOnUse" x1="-514.2261" y1="1048.1189" x2="-522.9125" y2="886.9525" gradientTransform="matrix(0.3755 0 0 -0.2369 309.5851 360.7276)">
					<stop  offset="0" style="stop-color:#71401B"/>
					<stop  offset="1" style="stop-color:#472810"/>
				</linearGradient>
				<path id="M" class="st28" d="M220.9,182l0,0.2c0,4.9-2.6,9.4-6.8,11.8l-82.9,48c-0.9,0.6-1.9,1-2.9,1.3l-10.9,6.3
					c-4.2,2.4-9.3,2.4-13.5,0L6.9,193.5c-4.1-2.4-6.7-6.9-6.7-11.7c0-4.8,2.5-9.3,6.7-11.7l96.9-56.1c4.2-2.4,9.3-2.4,13.4,0
					l96.9,56.1C218.4,172.6,221,177.2,220.9,182L220.9,182z"/>
			</g>
			<g id="use179">
				<pattern  id="SVGID_9_" xlink:href="#N" patternTransform="matrix(0.2982 0 0 -0.2982 -5607.6616 -11134.5127)">
				</pattern>
				<path class="st29" d="M220.9,182l0,0.2c0,4.9-2.6,9.4-6.8,11.8l-82.9,48c-0.9,0.6-1.9,1-2.9,1.3l-10.9,6.3
					c-4.2,2.4-9.3,2.4-13.5,0L6.9,193.5c-4.1-2.4-6.7-6.9-6.7-11.7c0-4.8,2.5-9.3,6.7-11.7l96.9-56.1c4.2-2.4,9.3-2.4,13.4,0
					l96.9,56.1C218.4,172.6,221,177.2,220.9,182L220.9,182z"/>
			</g>
		</g>
		<g id="g187" transform="translate(512.162,304.768)">
			<g id="use183">
				
					<linearGradient id="O_1_" gradientUnits="userSpaceOnUse" x1="-523.2236" y1="967.8179" x2="-523.2236" y2="817.4531" gradientTransform="matrix(0.3942 0 0 -0.2256 316.6693 357.9247)">
					<stop  offset="0" style="stop-color:#7B4D27"/>
					<stop  offset="1" style="stop-color:#683F1E"/>
				</linearGradient>
				<path id="O" class="st30" d="M107.3,252.5c1.9,1.1,4.3,1.1,6.3,0l87-50.6l9.2-5.5l-96.2-56c-1.9-1.1-4.3-1.1-6.3,0L11,195.8
					l9.4,6.1L107.3,252.5z"/>
			</g>
			<g id="use185">
				<pattern  id="SVGID_10_" xlink:href="#P" patternTransform="matrix(0.2982 0 0 -0.2982 -5604.4409 -11142.6582)">
				</pattern>
				<path class="st31" d="M107.3,252.5c1.9,1.1,4.3,1.1,6.3,0l87-50.6l9.2-5.5l-96.2-56c-1.9-1.1-4.3-1.1-6.3,0L11,195.8l9.4,6.1
					L107.3,252.5z"/>
			</g>
		</g>
	</g>
	<defs>
		<filter id="Adobe_OpacityMaskFilter_4_" filterUnits="userSpaceOnUse" x="196.8" y="418.7" width="220.7" height="141.1">
			<feColorMatrix  type="matrix" values="1 0 0 0 0  0 1 0 0 0  0 0 1 0 0  0 0 0 1 0"/>
		</filter>
	</defs>
	<mask maskUnits="userSpaceOnUse" x="196.8" y="418.7" width="220.7" height="141.1" id="x_5_">
		<g id="use126_5_" class="st32">
			<path id="u_5_" class="st8" d="M39.1,442.7c-1.5-1.2-6.3-4-11.2-6.9c-5.7-3.4-18.3-9.6-21.9-15.3c-3.7-5.7-5.9-6.9-5.9-17
				C0,393.4,5.4,384,14.2,379L443,122.7l0.7-0.4l0.3-0.2l10.7-6.4c0.2-0.1,0.5-0.3,0.7-0.4c2.2-1,4.2-1.9,6.1-2.4
				c4.5-1.2,9.1-1.3,13.6-0.3c2.5,0.7,5.1,1.7,8,3.1l4.2,2.3c2.4,1.3,4.9,2.9,7.7,4.6C762.5,276,906.1,359.1,926,371.7
				c13,8.3,16.8,25.5,8.5,38.4c-2.4,3.7-5.6,6.9-9.5,9.1l-38.1,22.2l-34.3,30.1c-35.2-10.5-58.6-12.1-70-4.9
				c-4,2.5-11.2-2.1-17.4-5.9c-6.3-3.8-20.7,8.1-27.5,14c-2.9,2.5-4.3,6.1-4.1,10.7c0.2,5.8-2.9,11.2-8.1,13.9
				c-46.8-12.6-77.4-8.3-100.2,3.3c-10.1,5.2-18.7,9.8-25.9,13.7c-2.4,1.3-3.2,4.2-2,6.6c0.3,0.6,0.8,1.2,1.4,1.6l3.2,2.4
				c3.5,2.6,4.2,7.6,1.6,11.1c-0.5,0.7-1.2,1.3-1.9,1.8l-5.2,3.5c-15.6-8.6-23.7-13.3-24.3-14c0-0.1-2.2,0.7-6.4,2.3
				c-0.9,0.3-1.7,0.6-2.6,0.8c-13.4,3.1-24.6,1.6-33.5-4.5c-13.8-9.4-20.5-0.1-23.6,2.5c-2.9,2.5-2.4,16.1-2.1,22.5
				c0,0.4,0.1,4.7,0,5.1c0,0.3-2.7,2.4-8.1,6.4c-5.2,3.8-11.2,5.8-18.1,6.1c-10.2,0.4-16-3.9-25.1-10.3c-6-4.3-9.1-9-9.1-14.2
				c1.6-18.4-4.6-24-18.5-16.7c-15.4,8-19.3,14.6-35.7,6.6c-10.9-5.3-30.8,2.1-59.4,22.2l-21.9,13.6c-17,10.5-38.5,10.2-55.2-0.8
				c-0.4-0.3-0.8-0.5-1.2-0.7c-11.1-6-14.7,29.1-15.2,35.4c-0.3,10.8-1.4,15.8,2,38.4c1.2,8.1,5.4,12.7,7.1,17
				c6.2,16.2-3.3,23.4-11.7,22.9c-8.4-0.5-15.5-9.1-10.8-22.9c1.8-5.3,4.4-9.1,6.2-16.9c4.6-19.6,4.7-27.9,2.6-38.4
				c-5-24.1-12.8-57.9-31.2-69.7c-25-16.2-52.7-29.3-63.8-15.6c-3.6,4.4-7.3,6.2-10.9,3.1c-3.6-3.1-4.6-5.9-11.4-20.2
				c-3.4-7.1-7.3-12.4-7.8-13.3c-10.1-17.5-30.7-26.7-40.4-31.9C57.2,453,48.1,447.9,39.1,442.7L39.1,442.7z"/>
		</g>
	</mask>
	<g id="g203" class="st33">
		<g id="g195" transform="translate(196.569,306.433)">
			<g id="use191">
				
					<linearGradient id="Q_1_" gradientUnits="userSpaceOnUse" x1="-198.6331" y1="1046.4539" x2="-207.3195" y2="885.2874" gradientTransform="matrix(0.3755 0 0 -0.2369 191.0875 360.3332)">
					<stop  offset="0" style="stop-color:#71401B"/>
					<stop  offset="1" style="stop-color:#472810"/>
				</linearGradient>
				<path id="Q" class="st34" d="M220.9,182l0,0.2c0,4.9-2.6,9.4-6.8,11.8l-82.9,48c-0.9,0.6-1.9,1-2.9,1.3l-10.9,6.3
					c-4.2,2.4-9.3,2.4-13.5,0L6.9,193.5c-4.1-2.4-6.7-6.9-6.7-11.7c0-4.8,2.5-9.3,6.7-11.7l96.9-56.1c4.2-2.4,9.3-2.4,13.4,0
					l96.9,56.1C218.4,172.6,221,177.2,220.9,182L220.9,182z"/>
			</g>
			<g id="use193">
				<pattern  id="SVGID_11_" xlink:href="#R" patternTransform="matrix(0.2982 0 0 -0.2982 -5701.7852 -11135.0088)">
				</pattern>
				<path class="st35" d="M220.9,182l0,0.2c0,4.9-2.6,9.4-6.8,11.8l-82.9,48c-0.9,0.6-1.9,1-2.9,1.3l-10.9,6.3
					c-4.2,2.4-9.3,2.4-13.5,0L6.9,193.5c-4.1-2.4-6.7-6.9-6.7-11.7c0-4.8,2.5-9.3,6.7-11.7l96.9-56.1c4.2-2.4,9.3-2.4,13.4,0
					l96.9,56.1C218.4,172.6,221,177.2,220.9,182L220.9,182z"/>
			</g>
		</g>
		<g id="g201" transform="translate(196.569,306.433)">
			<g id="use197">
				
					<linearGradient id="S_1_" gradientUnits="userSpaceOnUse" x1="-207.6306" y1="966.1529" x2="-207.6306" y2="815.788" gradientTransform="matrix(0.3942 0 0 -0.2256 192.2574 357.549)">
					<stop  offset="0" style="stop-color:#7B4D27"/>
					<stop  offset="1" style="stop-color:#683F1E"/>
				</linearGradient>
				<path id="S" class="st36" d="M107.3,252.5c1.9,1.1,4.3,1.1,6.3,0l87-50.6l9.2-5.5l-96.2-56c-1.9-1.1-4.3-1.1-6.3,0L11,195.8
					l9.4,6.1L107.3,252.5z"/>
			</g>
			<g id="use199">
				<pattern  id="SVGID_12_" xlink:href="#T" patternTransform="matrix(0.2982 0 0 -0.2982 -5698.5645 -11143.1543)">
				</pattern>
				<path class="st37" d="M107.3,252.5c1.9,1.1,4.3,1.1,6.3,0l87-50.6l9.2-5.5l-96.2-56c-1.9-1.1-4.3-1.1-6.3,0L11,195.8l9.4,6.1
					L107.3,252.5z"/>
			</g>
		</g>
	</g>
	<defs>
		<filter id="Adobe_OpacityMaskFilter_5_" filterUnits="userSpaceOnUse" x="353.3" y="508.6" width="220.7" height="141.1">
			<feColorMatrix  type="matrix" values="1 0 0 0 0  0 1 0 0 0  0 0 1 0 0  0 0 0 1 0"/>
		</filter>
	</defs>
	<mask maskUnits="userSpaceOnUse" x="353.3" y="508.6" width="220.7" height="141.1" id="x_6_">
		<g id="use126_6_" class="st38">
			<path id="u_6_" class="st8" d="M39.1,442.7c-1.5-1.2-6.3-4-11.2-6.9c-5.7-3.4-18.3-9.6-21.9-15.3c-3.7-5.7-5.9-6.9-5.9-17
				C0,393.4,5.4,384,14.2,379L443,122.7l0.7-0.4l0.3-0.2l10.7-6.4c0.2-0.1,0.5-0.3,0.7-0.4c2.2-1,4.2-1.9,6.1-2.4
				c4.5-1.2,9.1-1.3,13.6-0.3c2.5,0.7,5.1,1.7,8,3.1l4.2,2.3c2.4,1.3,4.9,2.9,7.7,4.6C762.5,276,906.1,359.1,926,371.7
				c13,8.3,16.8,25.5,8.5,38.4c-2.4,3.7-5.6,6.9-9.5,9.1l-38.1,22.2l-34.3,30.1c-35.2-10.5-58.6-12.1-70-4.9
				c-4,2.5-11.2-2.1-17.4-5.9c-6.3-3.8-20.7,8.1-27.5,14c-2.9,2.5-4.3,6.1-4.1,10.7c0.2,5.8-2.9,11.2-8.1,13.9
				c-46.8-12.6-77.4-8.3-100.2,3.3c-10.1,5.2-18.7,9.8-25.9,13.7c-2.4,1.3-3.2,4.2-2,6.6c0.3,0.6,0.8,1.2,1.4,1.6l3.2,2.4
				c3.5,2.6,4.2,7.6,1.6,11.1c-0.5,0.7-1.2,1.3-1.9,1.8l-5.2,3.5c-15.6-8.6-23.7-13.3-24.3-14c0-0.1-2.2,0.7-6.4,2.3
				c-0.9,0.3-1.7,0.6-2.6,0.8c-13.4,3.1-24.6,1.6-33.5-4.5c-13.8-9.4-20.5-0.1-23.6,2.5c-2.9,2.5-2.4,16.1-2.1,22.5
				c0,0.4,0.1,4.7,0,5.1c0,0.3-2.7,2.4-8.1,6.4c-5.2,3.8-11.2,5.8-18.1,6.1c-10.2,0.4-16-3.9-25.1-10.3c-6-4.3-9.1-9-9.1-14.2
				c1.6-18.4-4.6-24-18.5-16.7c-15.4,8-19.3,14.6-35.7,6.6c-10.9-5.3-30.8,2.1-59.4,22.2l-21.9,13.6c-17,10.5-38.5,10.2-55.2-0.8
				c-0.4-0.3-0.8-0.5-1.2-0.7c-11.1-6-14.7,29.1-15.2,35.4c-0.3,10.8-1.4,15.8,2,38.4c1.2,8.1,5.4,12.7,7.1,17
				c6.2,16.2-3.3,23.4-11.7,22.9c-8.4-0.5-15.5-9.1-10.8-22.9c1.8-5.3,4.4-9.1,6.2-16.9c4.6-19.6,4.7-27.9,2.6-38.4
				c-5-24.1-12.8-57.9-31.2-69.7c-25-16.2-52.7-29.3-63.8-15.6c-3.6,4.4-7.3,6.2-10.9,3.1c-3.6-3.1-4.6-5.9-11.4-20.2
				c-3.4-7.1-7.3-12.4-7.8-13.3c-10.1-17.5-30.7-26.7-40.4-31.9C57.2,453,48.1,447.9,39.1,442.7L39.1,442.7z"/>
		</g>
	</mask>
	<g id="g217" class="st39">
		<g id="g209" transform="translate(353.116,396.364)">
			<g id="use205">
				
					<linearGradient id="U_1_" gradientUnits="userSpaceOnUse" x1="-355.1801" y1="956.5229" x2="-363.8665" y2="795.3564" gradientTransform="matrix(0.3755 0 0 -0.2369 249.8672 339.0287)">
					<stop  offset="0" style="stop-color:#71401B"/>
					<stop  offset="1" style="stop-color:#472810"/>
				</linearGradient>
				<path id="U" class="st40" d="M220.9,182l0,0.2c0,4.9-2.6,9.4-6.8,11.8l-82.9,48c-0.9,0.6-1.9,1-2.9,1.3l-10.9,6.3
					c-4.2,2.4-9.3,2.4-13.5,0L6.9,193.5c-4.1-2.4-6.7-6.9-6.7-11.7c0-4.8,2.5-9.3,6.7-11.7l96.9-56.1c4.2-2.4,9.3-2.4,13.4,0
					l96.9,56.1C218.4,172.6,221,177.2,220.9,182L220.9,182z"/>
			</g>
			<g id="use207">
				<pattern  id="SVGID_13_" xlink:href="#V" patternTransform="matrix(0.2982 0 0 -0.2982 -5655.0962 -11161.8301)">
				</pattern>
				<path class="st41" d="M220.9,182l0,0.2c0,4.9-2.6,9.4-6.8,11.8l-82.9,48c-0.9,0.6-1.9,1-2.9,1.3l-10.9,6.3
					c-4.2,2.4-9.3,2.4-13.5,0L6.9,193.5c-4.1-2.4-6.7-6.9-6.7-11.7c0-4.8,2.5-9.3,6.7-11.7l96.9-56.1c4.2-2.4,9.3-2.4,13.4,0
					l96.9,56.1C218.4,172.6,221,177.2,220.9,182L220.9,182z"/>
			</g>
		</g>
		<g id="g215" transform="translate(353.116,396.364)">
			<g id="use211">
				
					<linearGradient id="W_1_" gradientUnits="userSpaceOnUse" x1="-364.1776" y1="876.2219" x2="-364.1776" y2="725.8571" gradientTransform="matrix(0.3942 0 0 -0.2256 253.9708 337.2573)">
					<stop  offset="0" style="stop-color:#7B4D27"/>
					<stop  offset="1" style="stop-color:#683F1E"/>
				</linearGradient>
				<path id="W" class="st42" d="M107.3,252.5c1.9,1.1,4.3,1.1,6.3,0l87-50.6l9.2-5.5l-96.2-56c-1.9-1.1-4.3-1.1-6.3,0L11,195.8
					l9.4,6.1L107.3,252.5z"/>
			</g>
			<g id="use213">
				<pattern  id="SVGID_14_" xlink:href="#X" patternTransform="matrix(0.2982 0 0 -0.2982 -5651.875 -11169.9756)">
				</pattern>
				<path class="st43" d="M107.3,252.5c1.9,1.1,4.3,1.1,6.3,0l87-50.6l9.2-5.5l-96.2-56c-1.9-1.1-4.3-1.1-6.3,0L11,195.8l9.4,6.1
					L107.3,252.5z"/>
			</g>
		</g>
	</g>
	<defs>
		<filter id="Adobe_OpacityMaskFilter_6_" filterUnits="userSpaceOnUse" x="668.9" y="327.1" width="220.7" height="141.1">
			<feColorMatrix  type="matrix" values="1 0 0 0 0  0 1 0 0 0  0 0 1 0 0  0 0 0 1 0"/>
		</filter>
	</defs>
	<mask maskUnits="userSpaceOnUse" x="668.9" y="327.1" width="220.7" height="141.1" id="x_7_">
		<g id="use126_7_" class="st44">
			<path id="u_7_" class="st8" d="M39.1,442.7c-1.5-1.2-6.3-4-11.2-6.9c-5.7-3.4-18.3-9.6-21.9-15.3c-3.7-5.7-5.9-6.9-5.9-17
				C0,393.4,5.4,384,14.2,379L443,122.7l0.7-0.4l0.3-0.2l10.7-6.4c0.2-0.1,0.5-0.3,0.7-0.4c2.2-1,4.2-1.9,6.1-2.4
				c4.5-1.2,9.1-1.3,13.6-0.3c2.5,0.7,5.1,1.7,8,3.1l4.2,2.3c2.4,1.3,4.9,2.9,7.7,4.6C762.5,276,906.1,359.1,926,371.7
				c13,8.3,16.8,25.5,8.5,38.4c-2.4,3.7-5.6,6.9-9.5,9.1l-38.1,22.2l-34.3,30.1c-35.2-10.5-58.6-12.1-70-4.9
				c-4,2.5-11.2-2.1-17.4-5.9c-6.3-3.8-20.7,8.1-27.5,14c-2.9,2.5-4.3,6.1-4.1,10.7c0.2,5.8-2.9,11.2-8.1,13.9
				c-46.8-12.6-77.4-8.3-100.2,3.3c-10.1,5.2-18.7,9.8-25.9,13.7c-2.4,1.3-3.2,4.2-2,6.6c0.3,0.6,0.8,1.2,1.4,1.6l3.2,2.4
				c3.5,2.6,4.2,7.6,1.6,11.1c-0.5,0.7-1.2,1.3-1.9,1.8l-5.2,3.5c-15.6-8.6-23.7-13.3-24.3-14c0-0.1-2.2,0.7-6.4,2.3
				c-0.9,0.3-1.7,0.6-2.6,0.8c-13.4,3.1-24.6,1.6-33.5-4.5c-13.8-9.4-20.5-0.1-23.6,2.5c-2.9,2.5-2.4,16.1-2.1,22.5
				c0,0.4,0.1,4.7,0,5.1c0,0.3-2.7,2.4-8.1,6.4c-5.2,3.8-11.2,5.8-18.1,6.1c-10.2,0.4-16-3.9-25.1-10.3c-6-4.3-9.1-9-9.1-14.2
				c1.6-18.4-4.6-24-18.5-16.7c-15.4,8-19.3,14.6-35.7,6.6c-10.9-5.3-30.8,2.1-59.4,22.2l-21.9,13.6c-17,10.5-38.5,10.2-55.2-0.8
				c-0.4-0.3-0.8-0.5-1.2-0.7c-11.1-6-14.7,29.1-15.2,35.4c-0.3,10.8-1.4,15.8,2,38.4c1.2,8.1,5.4,12.7,7.1,17
				c6.2,16.2-3.3,23.4-11.7,22.9c-8.4-0.5-15.5-9.1-10.8-22.9c1.8-5.3,4.4-9.1,6.2-16.9c4.6-19.6,4.7-27.9,2.6-38.4
				c-5-24.1-12.8-57.9-31.2-69.7c-25-16.2-52.7-29.3-63.8-15.6c-3.6,4.4-7.3,6.2-10.9,3.1c-3.6-3.1-4.6-5.9-11.4-20.2
				c-3.4-7.1-7.3-12.4-7.8-13.3c-10.1-17.5-30.7-26.7-40.4-31.9C57.2,453,48.1,447.9,39.1,442.7L39.1,442.7z"/>
		</g>
	</mask>
	<g id="g231" class="st45">
		<g id="g223" transform="translate(668.709,214.836)">
			<g id="use219">
				
					<linearGradient id="Y_1_" gradientUnits="userSpaceOnUse" x1="-670.7731" y1="1138.0509" x2="-679.4595" y2="976.8845" gradientTransform="matrix(0.3755 0 0 -0.2369 368.3647 382.0323)">
					<stop  offset="0" style="stop-color:#71401B"/>
					<stop  offset="1" style="stop-color:#472810"/>
				</linearGradient>
				<path id="Y" class="st46" d="M220.9,182l0,0.2c0,4.9-2.6,9.4-6.8,11.8l-82.9,48c-0.9,0.6-1.9,1-2.9,1.3l-10.9,6.3
					c-4.2,2.4-9.3,2.4-13.5,0L6.9,193.5c-4.1-2.4-6.7-6.9-6.7-11.7c0-4.8,2.5-9.3,6.7-11.7l96.9-56.1c4.2-2.4,9.3-2.4,13.4,0
					l96.9,56.1C218.4,172.6,221,177.2,220.9,182L220.9,182z"/>
			</g>
			<g id="use221">
				<pattern  id="SVGID_15_" xlink:href="#Z" patternTransform="matrix(0.2982 0 0 -0.2982 -5560.9727 -11107.6904)">
				</pattern>
				<path class="st47" d="M220.9,182l0,0.2c0,4.9-2.6,9.4-6.8,11.8l-82.9,48c-0.9,0.6-1.9,1-2.9,1.3l-10.9,6.3
					c-4.2,2.4-9.3,2.4-13.5,0L6.9,193.5c-4.1-2.4-6.7-6.9-6.7-11.7c0-4.8,2.5-9.3,6.7-11.7l96.9-56.1c4.2-2.4,9.3-2.4,13.4,0
					l96.9,56.1C218.4,172.6,221,177.2,220.9,182L220.9,182z"/>
			</g>
		</g>
		<g id="g229" transform="translate(668.709,214.836)">
			<g id="use225">
				
					<linearGradient id="aa_1_" gradientUnits="userSpaceOnUse" x1="-679.7706" y1="1057.7499" x2="-679.7706" y2="907.3851" gradientTransform="matrix(0.3942 0 0 -0.2256 378.3826 378.2166)">
					<stop  offset="0" style="stop-color:#7B4D27"/>
					<stop  offset="1" style="stop-color:#683F1E"/>
				</linearGradient>
				<path id="aa" class="st48" d="M107.3,252.5c1.9,1.1,4.3,1.1,6.3,0l87-50.6l9.2-5.5l-96.2-56c-1.9-1.1-4.3-1.1-6.3,0L11,195.8
					l9.4,6.1L107.3,252.5z"/>
			</g>
			<g id="use227">
				<pattern  id="SVGID_16_" xlink:href="#ab" patternTransform="matrix(0.2982 0 0 -0.2982 -5557.7515 -11115.8369)">
				</pattern>
				<path class="st49" d="M107.3,252.5c1.9,1.1,4.3,1.1,6.3,0l87-50.6l9.2-5.5l-96.2-56c-1.9-1.1-4.3-1.1-6.3,0L11,195.8l9.4,6.1
					L107.3,252.5z"/>
			</g>
		</g>
	</g>
	<defs>
		<filter id="Adobe_OpacityMaskFilter_7_" filterUnits="userSpaceOnUse" x="201" y="237.1" width="220.7" height="141.1">
			<feColorMatrix  type="matrix" values="1 0 0 0 0  0 1 0 0 0  0 0 1 0 0  0 0 0 1 0"/>
		</filter>
	</defs>
	<mask maskUnits="userSpaceOnUse" x="201" y="237.1" width="220.7" height="141.1" id="x_8_">
		<g id="use126_8_" class="st50">
			<path id="u_8_" class="st8" d="M39.1,442.7c-1.5-1.2-6.3-4-11.2-6.9c-5.7-3.4-18.3-9.6-21.9-15.3c-3.7-5.7-5.9-6.9-5.9-17
				C0,393.4,5.4,384,14.2,379L443,122.7l0.7-0.4l0.3-0.2l10.7-6.4c0.2-0.1,0.5-0.3,0.7-0.4c2.2-1,4.2-1.9,6.1-2.4
				c4.5-1.2,9.1-1.3,13.6-0.3c2.5,0.7,5.1,1.7,8,3.1l4.2,2.3c2.4,1.3,4.9,2.9,7.7,4.6C762.5,276,906.1,359.1,926,371.7
				c13,8.3,16.8,25.5,8.5,38.4c-2.4,3.7-5.6,6.9-9.5,9.1l-38.1,22.2l-34.3,30.1c-35.2-10.5-58.6-12.1-70-4.9
				c-4,2.5-11.2-2.1-17.4-5.9c-6.3-3.8-20.7,8.1-27.5,14c-2.9,2.5-4.3,6.1-4.1,10.7c0.2,5.8-2.9,11.2-8.1,13.9
				c-46.8-12.6-77.4-8.3-100.2,3.3c-10.1,5.2-18.7,9.8-25.9,13.7c-2.4,1.3-3.2,4.2-2,6.6c0.3,0.6,0.8,1.2,1.4,1.6l3.2,2.4
				c3.5,2.6,4.2,7.6,1.6,11.1c-0.5,0.7-1.2,1.3-1.9,1.8l-5.2,3.5c-15.6-8.6-23.7-13.3-24.3-14c0-0.1-2.2,0.7-6.4,2.3
				c-0.9,0.3-1.7,0.6-2.6,0.8c-13.4,3.1-24.6,1.6-33.5-4.5c-13.8-9.4-20.5-0.1-23.6,2.5c-2.9,2.5-2.4,16.1-2.1,22.5
				c0,0.4,0.1,4.7,0,5.1c0,0.3-2.7,2.4-8.1,6.4c-5.2,3.8-11.2,5.8-18.1,6.1c-10.2,0.4-16-3.9-25.1-10.3c-6-4.3-9.1-9-9.1-14.2
				c1.6-18.4-4.6-24-18.5-16.7c-15.4,8-19.3,14.6-35.7,6.6c-10.9-5.3-30.8,2.1-59.4,22.2l-21.9,13.6c-17,10.5-38.5,10.2-55.2-0.8
				c-0.4-0.3-0.8-0.5-1.2-0.7c-11.1-6-14.7,29.1-15.2,35.4c-0.3,10.8-1.4,15.8,2,38.4c1.2,8.1,5.4,12.7,7.1,17
				c6.2,16.2-3.3,23.4-11.7,22.9c-8.4-0.5-15.5-9.1-10.8-22.9c1.8-5.3,4.4-9.1,6.2-16.9c4.6-19.6,4.7-27.9,2.6-38.4
				c-5-24.1-12.8-57.9-31.2-69.7c-25-16.2-52.7-29.3-63.8-15.6c-3.6,4.4-7.3,6.2-10.9,3.1c-3.6-3.1-4.6-5.9-11.4-20.2
				c-3.4-7.1-7.3-12.4-7.8-13.3c-10.1-17.5-30.7-26.7-40.4-31.9C57.2,453,48.1,447.9,39.1,442.7L39.1,442.7z"/>
		</g>
	</mask>
	<g id="g245" class="st51">
		<g id="g237" transform="translate(200.733,124.905)">
			<g id="use233">
				
					<linearGradient id="ac_1_" gradientUnits="userSpaceOnUse" x1="-202.7971" y1="1227.9819" x2="-211.4835" y2="1066.8154" gradientTransform="matrix(0.3755 0 0 -0.2369 192.651 403.3368)">
					<stop  offset="0" style="stop-color:#71401B"/>
					<stop  offset="1" style="stop-color:#472810"/>
				</linearGradient>
				<path id="ac" class="st52" d="M220.9,182l0,0.2c0,4.9-2.6,9.4-6.8,11.8l-82.9,48c-0.9,0.6-1.9,1-2.9,1.3l-10.9,6.3
					c-4.2,2.4-9.3,2.4-13.5,0L6.9,193.5c-4.1-2.4-6.7-6.9-6.7-11.7c0-4.8,2.5-9.3,6.7-11.7l96.9-56.1c4.2-2.4,9.3-2.4,13.4,0
					l96.9,56.1C218.4,172.6,221,177.2,220.9,182L220.9,182z"/>
			</g>
			<g id="use235">
				<pattern  id="SVGID_17_" xlink:href="#ad" patternTransform="matrix(0.2982 0 0 -0.2982 -5700.5435 -11080.8691)">
				</pattern>
				<path class="st53" d="M220.9,182l0,0.2c0,4.9-2.6,9.4-6.8,11.8l-82.9,48c-0.9,0.6-1.9,1-2.9,1.3l-10.9,6.3
					c-4.2,2.4-9.3,2.4-13.5,0L6.9,193.5c-4.1-2.4-6.7-6.9-6.7-11.7c0-4.8,2.5-9.3,6.7-11.7l96.9-56.1c4.2-2.4,9.3-2.4,13.4,0
					l96.9,56.1C218.4,172.6,221,177.2,220.9,182L220.9,182z"/>
			</g>
		</g>
		<g id="g243" transform="translate(200.733,124.905)">
			<g id="use239">
				
					<linearGradient id="ae_1_" gradientUnits="userSpaceOnUse" x1="-211.7946" y1="1147.6809" x2="-211.7946" y2="997.316" gradientTransform="matrix(0.3942 0 0 -0.2256 193.8989 398.5083)">
					<stop  offset="0" style="stop-color:#7B4D27"/>
					<stop  offset="1" style="stop-color:#683F1E"/>
				</linearGradient>
				<path id="ae" class="st54" d="M107.3,252.5c1.9,1.1,4.3,1.1,6.3,0l87-50.6l9.2-5.5l-96.2-56c-1.9-1.1-4.3-1.1-6.3,0L11,195.8
					l9.4,6.1L107.3,252.5z"/>
			</g>
			<g id="use241">
				<pattern  id="SVGID_18_" xlink:href="#af" patternTransform="matrix(0.2982 0 0 -0.2982 -5697.3223 -11089.0156)">
				</pattern>
				<path class="st55" d="M107.3,252.5c1.9,1.1,4.3,1.1,6.3,0l87-50.6l9.2-5.5l-96.2-56c-1.9-1.1-4.3-1.1-6.3,0L11,195.8l9.4,6.1
					L107.3,252.5z"/>
			</g>
		</g>
	</g>
	<defs>
		<filter id="Adobe_OpacityMaskFilter_8_" filterUnits="userSpaceOnUse" x="42.8" y="330.4" width="220.7" height="141.1">
			<feColorMatrix  type="matrix" values="1 0 0 0 0  0 1 0 0 0  0 0 1 0 0  0 0 0 1 0"/>
		</filter>
	</defs>
	<mask maskUnits="userSpaceOnUse" x="42.8" y="330.4" width="220.7" height="141.1" id="x_9_">
		<g id="use126_9_" class="st56">
			<path id="u_9_" class="st8" d="M39.1,442.7c-1.5-1.2-6.3-4-11.2-6.9c-5.7-3.4-18.3-9.6-21.9-15.3c-3.7-5.7-5.9-6.9-5.9-17
				C0,393.4,5.4,384,14.2,379L443,122.7l0.7-0.4l0.3-0.2l10.7-6.4c0.2-0.1,0.5-0.3,0.7-0.4c2.2-1,4.2-1.9,6.1-2.4
				c4.5-1.2,9.1-1.3,13.6-0.3c2.5,0.7,5.1,1.7,8,3.1l4.2,2.3c2.4,1.3,4.9,2.9,7.7,4.6C762.5,276,906.1,359.1,926,371.7
				c13,8.3,16.8,25.5,8.5,38.4c-2.4,3.7-5.6,6.9-9.5,9.1l-38.1,22.2l-34.3,30.1c-35.2-10.5-58.6-12.1-70-4.9
				c-4,2.5-11.2-2.1-17.4-5.9c-6.3-3.8-20.7,8.1-27.5,14c-2.9,2.5-4.3,6.1-4.1,10.7c0.2,5.8-2.9,11.2-8.1,13.9
				c-46.8-12.6-77.4-8.3-100.2,3.3c-10.1,5.2-18.7,9.8-25.9,13.7c-2.4,1.3-3.2,4.2-2,6.6c0.3,0.6,0.8,1.2,1.4,1.6l3.2,2.4
				c3.5,2.6,4.2,7.6,1.6,11.1c-0.5,0.7-1.2,1.3-1.9,1.8l-5.2,3.5c-15.6-8.6-23.7-13.3-24.3-14c0-0.1-2.2,0.7-6.4,2.3
				c-0.9,0.3-1.7,0.6-2.6,0.8c-13.4,3.1-24.6,1.6-33.5-4.5c-13.8-9.4-20.5-0.1-23.6,2.5c-2.9,2.5-2.4,16.1-2.1,22.5
				c0,0.4,0.1,4.7,0,5.1c0,0.3-2.7,2.4-8.1,6.4c-5.2,3.8-11.2,5.8-18.1,6.1c-10.2,0.4-16-3.9-25.1-10.3c-6-4.3-9.1-9-9.1-14.2
				c1.6-18.4-4.6-24-18.5-16.7c-15.4,8-19.3,14.6-35.7,6.6c-10.9-5.3-30.8,2.1-59.4,22.2l-21.9,13.6c-17,10.5-38.5,10.2-55.2-0.8
				c-0.4-0.3-0.8-0.5-1.2-0.7c-11.1-6-14.7,29.1-15.2,35.4c-0.3,10.8-1.4,15.8,2,38.4c1.2,8.1,5.4,12.7,7.1,17
				c6.2,16.2-3.3,23.4-11.7,22.9c-8.4-0.5-15.5-9.1-10.8-22.9c1.8-5.3,4.4-9.1,6.2-16.9c4.6-19.6,4.7-27.9,2.6-38.4
				c-5-24.1-12.8-57.9-31.2-69.7c-25-16.2-52.7-29.3-63.8-15.6c-3.6,4.4-7.3,6.2-10.9,3.1c-3.6-3.1-4.6-5.9-11.4-20.2
				c-3.4-7.1-7.3-12.4-7.8-13.3c-10.1-17.5-30.7-26.7-40.4-31.9C57.2,453,48.1,447.9,39.1,442.7L39.1,442.7z"/>
		</g>
	</mask>
	<g id="g259" class="st57">
		<g id="g251" transform="translate(42.52,218.167)">
			<g id="use247">
				
					<linearGradient id="ag_1_" gradientUnits="userSpaceOnUse" x1="-44.5841" y1="1134.7198" x2="-53.2705" y2="973.5534" gradientTransform="matrix(0.3755 0 0 -0.2369 133.2458 381.2432)">
					<stop  offset="0" style="stop-color:#71401B"/>
					<stop  offset="1" style="stop-color:#472810"/>
				</linearGradient>
				<path id="ag" class="st58" d="M220.9,182l0,0.2c0,4.9-2.6,9.4-6.8,11.8l-82.9,48c-0.9,0.6-1.9,1-2.9,1.3l-10.9,6.3
					c-4.2,2.4-9.3,2.4-13.5,0L6.9,193.5c-4.1-2.4-6.7-6.9-6.7-11.7c0-4.8,2.5-9.3,6.7-11.7l96.9-56.1c4.2-2.4,9.3-2.4,13.4,0
					l96.9,56.1C218.4,172.6,221,177.2,220.9,182L220.9,182z"/>
			</g>
			<g id="use249">
				<pattern  id="SVGID_19_" xlink:href="#ah" patternTransform="matrix(0.2982 0 0 -0.2982 -5747.7295 -11108.6836)">
				</pattern>
				<path class="st59" d="M220.9,182l0,0.2c0,4.9-2.6,9.4-6.8,11.8l-82.9,48c-0.9,0.6-1.9,1-2.9,1.3l-10.9,6.3
					c-4.2,2.4-9.3,2.4-13.5,0L6.9,193.5c-4.1-2.4-6.7-6.9-6.7-11.7c0-4.8,2.5-9.3,6.7-11.7l96.9-56.1c4.2-2.4,9.3-2.4,13.4,0
					l96.9,56.1C218.4,172.6,221,177.2,220.9,182L220.9,182z"/>
			</g>
		</g>
		<g id="g257" transform="translate(42.52,218.167)">
			<g id="use253">
				
					<linearGradient id="ai_1_" gradientUnits="userSpaceOnUse" x1="-53.5816" y1="1054.4189" x2="-53.5816" y2="904.054" gradientTransform="matrix(0.3942 0 0 -0.2256 131.5288 377.465)">
					<stop  offset="0" style="stop-color:#7B4D27"/>
					<stop  offset="1" style="stop-color:#683F1E"/>
				</linearGradient>
				<path id="ai" class="st60" d="M107.3,252.5c1.9,1.1,4.3,1.1,6.3,0l87-50.6l9.2-5.5l-96.2-56c-1.9-1.1-4.3-1.1-6.3,0L11,195.8
					l9.4,6.1L107.3,252.5z"/>
			</g>
			<g id="use255">
				<pattern  id="SVGID_20_" xlink:href="#aj" patternTransform="matrix(0.2982 0 0 -0.2982 -5744.5083 -11116.8301)">
				</pattern>
				<path class="st61" d="M107.3,252.5c1.9,1.1,4.3,1.1,6.3,0l87-50.6l9.2-5.5l-96.2-56c-1.9-1.1-4.3-1.1-6.3,0L11,195.8l9.4,6.1
					L107.3,252.5z"/>
			</g>
		</g>
	</g>
</g>
</svg>
